<svg viewBox="0 0 170 170" xmlns="http://www.w3.org/2000/svg"><path d="m158.846 164.066h-147.692c-2.75 0-5-2.25-5-5v-147.692c0-2.75 2.25-5 5-5h147.692c2.75 0 5 2.25 5 5v147.692c0 2.75-2.25 5-5 5z" fill="#fff" stroke="#e0e0e0" stroke-miterlimit="10"/><path d="m163.846 24.494v-13.56c0-2.75-2.25-5-5-5h-147.692c-2.75 0-5 2.25-5 5v13.56z" fill="#fff" stroke="#e0e0e0" stroke-miterlimit="10"/><circle cx="17.023" cy="15.809" fill="#ed2c24" r="2.875"/><circle cx="26.711" cy="15.809" fill="#eaa822" r="2.875"/><circle cx="36.398" cy="15.809" fill="#80c142" r="2.875"/><path d="m148 111.379h-126c-2.75 0-5-2.25-5-5v-65.334c0-2.75 2.25-5 5-5h126c2.75 0 5 2.25 5 5v65.333c0 2.751-2.25 5.001-5 5.001z" fill="#e0e0e0" stroke="#e0e0e0" stroke-miterlimit="10"/><path d="m53.297 151.434h-31.297c-2.75 0-5-2.25-5-5v-23.389c0-2.75 2.25-5 5-5h31.297c2.75 0 5 2.25 5 5v23.389c0 2.75-2.25 5-5 5zm47.6 0h-31.296c-2.75 0-5-2.25-5-5v-23.389c0-2.75 2.25-5 5-5h31.297c2.75 0 5 2.25 5 5v23.389c-.001 2.75-2.251 5-5.001 5zm47.103 0h-31.297c-2.75 0-5-2.25-5-5v-23.389c0-2.75 2.25-5 5-5h31.297c2.75 0 5 2.25 5 5v23.389c0 2.75-2.25 5-5 5z" fill="#efeded"/></svg>