<svg viewBox="0 0 170 170" xmlns="http://www.w3.org/2000/svg"><path d="m158.846 164.066h-147.692c-2.75 0-5-2.25-5-5v-147.692c0-2.75 2.25-5 5-5h147.692c2.75 0 5 2.25 5 5v147.692c0 2.75-2.25 5-5 5z" fill="#fff" stroke="#e0e0e0" stroke-miterlimit="10"/><path d="m163.846 24.494v-13.56c0-2.75-2.25-5-5-5h-147.692c-2.75 0-5 2.25-5 5v13.56z" fill="#fff" stroke="#e0e0e0" stroke-miterlimit="10"/><circle cx="17.023" cy="15.809" fill="#ed2c24" r="2.875"/><circle cx="26.711" cy="15.809" fill="#eaa822" r="2.875"/><circle cx="36.398" cy="15.809" fill="#80c142" r="2.875"/><path d="m32.186 50.167h105.628v11h-105.628zm0 17.333h105.628v11h-105.628zm0 17.333h105.628v22.294h-105.628z" fill="#efeded"/><path d="m100.667 124.794h-31.334c-2.75 0-5-2.25-5-5v-1.333c0-2.75 2.25-5 5-5h31.333c2.75 0 5 2.25 5 5v1.333c.001 2.75-2.249 5-4.999 5z" fill="#d6d6d6"/></svg>