<svg height="65" viewBox="0 0 182 65" width="182" xmlns="http://www.w3.org/2000/svg"><g fill="none" fill-rule="evenodd" transform="translate(1)"><path d="m13.4726562 56.671875c4.5000226 0 6.75-1.5117036 6.75-4.5351562 0-1.6640709-1.2773309-3.0703068-3.8320312-4.21875-1.0781304-.49219-2.255853-.9492167-3.5332031-1.3710938-1.2773502-.4218771-2.5019473-.9257783-3.67382815-1.5117187-1.17188086-.5859405-2.26757303-1.224606-3.28710937-1.9160157-1.01953635-.6914097-1.90429313-1.4824174-2.65429688-2.3730468-1.54688273-1.8750094-2.3203125-4.2538919-2.3203125-7.1367188 0-3.5156426 1.4648291-6.3046772 4.39453125-8.3671875 2.60157551-1.8515718 5.80076225-2.7773437 9.59765625-2.7773437 4.0781454 0 7.4882675.796867 10.2304687 2.390625.9375047.5625028 1.40625 1.2070276 1.40625 1.9335937 0 1.0312552-.2753878 2.1621032-.8261718 3.3925781s-1.1953088 1.8457032-1.9335938 1.8457032c-.7382849 0-1.406247-.1523423-2.0039062-.4570313-.5976593-.304689-1.1367164-.5683583-1.6171875-.7910156-.4804712-.2226574-.9902317-.4042962-1.5292969-.5449219-1.1718809-.3515643-2.2558544-.5273437-3.2519531-.5273437-.9960988 0-1.7988251.0703117-2.4082032.2109375-.609378.1406257-1.1601537.3632797-1.6523437.6679687-1.1953185.7265661-1.79296875 1.6171822-1.79296875 2.671875s.24023197 1.8632784.72070315 2.4257813c.4804711.5625028 1.1425739 1.0781226 1.9863281 1.546875.8437542.4687523 1.8515566.9374976 3.0234375 1.40625l3.796875 1.5820312c3.0703279 1.3359442 5.1445259 2.5429634 6.2226562 3.6210938 2.1093856 2.1562607 3.1640625 4.6523295 3.1640625 7.4882812 0 3.5625178-1.2187378 6.492176-3.65625 8.7890625-2.6953259 2.507825-6.5273189 3.7617188-11.4960937 3.7617188-5.0390877 0-8.82420609-.9726466-11.35546875-2.9179688-1.24219371-.9375047-1.86328125-1.7812462-1.86328125-2.53125s.13476428-1.4238251.40429688-2.0214844c.26953259-.5976592.62109158-1.3007772 1.05468749-2.109375.43359592-.8085978 1.01952756-1.2128906 1.7578125-1.2128906.73828495 0 1.52343334.333981 2.35546875 1.0019531.83203542.6679721 1.97460211 1.2656224 3.42773438 1.7929688 1.4531323.5273464 2.9179614.7910156 4.3945312.7910156zm33.3984376-3.3398438c0 1.6640709.5507757 2.4960938 1.6523437 2.4960938.3750019 0 .7968727-.1054677 1.265625-.3164062.9140671-.3984395 1.5351546-.5976563 1.8632813-.5976563.4921899 0 .8906234.3398404 1.1953124 1.0195313l1.0898438 2.4609374c.1875009.3984395.28125.7734358.28125 1.125 0 1.0078176-.8671788 1.9453082-2.6015625 2.8125-1.6406332.8437543-3.2636638 1.265625-4.8691406 1.265625s-2.8886671-.1757794-3.8496094-.5273437-1.7812466-.9374959-2.4609375-1.7578125c-1.3593818-1.6875084-2.0390625-4.4296685-2.0390625-8.2265625v-27.421875c0-.6562533.1874981-1.207029.5625-1.6523437.3750019-.4453148.8203099-.6679688 1.3359375-.6679688h4.7109375c.5390652 0 .9843732.222654 1.3359375.6679688.3515643.4453147.5273438.9960904.5273438 1.6523437zm18.3867187 9.6679688c-1.406257 0-2.109375-.9023347-2.109375-2.7070312v-57.3398438c0-.63281566.1757795-1.17187277.5273437-1.6171875.3515643-.44531473.7968724-.66796875 1.3359376-.66796875h4.78125c.5390651 0 .9902325.22265402 1.3535156.66796875.363283.44531473.5449218.98437184.5449218 1.6171875v25.6992188c3.000015-4.1250207 7.2890347-6.1875 12.8671876-6.1875 5.1094005 0 9.0234239 1.8866998 11.7421874 5.6601562 2.4609499 3.4218921 3.6914063 7.9804403 3.6914063 13.6757812 0 6.6562833-1.6054527 12.0116985-4.8164063 16.0664063-3.1640783 3.9843949-7.1718507 5.9765625-12.0234374 5.9765625-2.6250132 0-5.0566295-.591791-7.2949219-1.7753906-2.2382925-1.1835997-4.0488212-2.9941285-5.4316407-5.4316406-.0468752.7265661-.1113277 1.4414027-.1933593 2.1445312-.0820317.7031285-.1347655 1.3828092-.1582031 2.0390625-.0937505 1.4531323-1.0429598 2.1796875-2.8476563 2.1796875zm6.6796875-25.0839844c-.5156276 1.6054768-.7734375 3.2812413-.7734375 5.0273438s.2578099 3.4335856.7734375 5.0625 1.2304642 3.0878842 2.1445312 4.3769531c2.0156351 2.8125141 4.5117039 4.21875 7.4882813 4.21875 3.3281416 0 5.8242104-1.4531105 7.4882813-4.359375 1.3593817-2.4140746 2.0390624-5.5312309 2.0390624-9.3515625 0-6.304719-1.6171713-10.359366-4.8515624-12.1640625-1.1250057-.6328157-2.4960857-.9492187-4.1132813-.9492187s-3.105462.3515589-4.4648437 1.0546874c-1.3593818.7031286-2.5253858 1.6581971-3.4980469 2.8652344s-1.7167943 2.6132732-2.2324219 4.21875zm46.933594 15.4160156c0 1.6640709.550775 2.4960938 1.652343 2.4960938.375002 0 .796873-.1054677 1.265625-.3164062.914068-.3984395 1.535155-.5976563 1.863282-.5976563.49219 0 .890623.3398404 1.195312 1.0195313l1.089844 2.4609374c.187501.3984395.28125.7734358.28125 1.125 0 1.0078176-.867179 1.9453082-2.601563 2.8125-1.640633.8437543-3.263663 1.265625-4.86914 1.265625s-2.888667-.1757794-3.84961-.5273437c-.960942-.3515643-1.781246-.9374959-2.460937-1.7578125-1.359382-1.6875084-2.039063-4.4296685-2.039063-8.2265625v-27.421875c0-.6562533.187499-1.207029.5625-1.6523437.375002-.4453148.82031-.6679688 1.335938-.6679688h4.710937c.539066 0 .984374.222654 1.335938.6679688.351564.4453147.527344.9960904.527344 1.6523437zm37.089844-24.6445312c0 1.3125066-.738274 1.96875-2.214844 1.96875h-9.914063v22.078125c0 2.390637 1.183582 3.5859375 3.550781 3.5859375 1.500008 0 3.45702-.7499925 5.871094-2.25.468753-.304689.978513-.4570313 1.529297-.4570313s.990233.3867149 1.318359 1.1601563l.808594 1.828125c.304689.7031285.457032 1.3007788.457032 1.7929687 0 .49219-.369137 1.0605437-1.107422 1.7050782-.738285.6445344-1.681635 1.2246068-2.830078 1.7402344-2.601576 1.1718808-4.957021 1.7578124-7.066407 1.7578124-2.109385 0-3.77929-.2167947-5.009765-.6503906s-2.279293-1.08398-3.146485-1.9511718c-1.875009-1.8281342-2.8125-4.4648266-2.8125-7.9101563v-22.4296875h-2.953125c-1.47657 0-2.214844-.6679621-2.214844-2.0039062v-2.0039063c0-.5390652.140624-.960936.421876-1.265625.281251-.304689.832027-.5390617 1.652343-.703125l3.515625-1.0195313 1.335938-8.2617187c.257814-1.5468827.89062-2.3203125 1.898437-2.3203125h2.917969c.539065 0 .984373.2167947 1.335938.6503906.351564.4335959.527343.990231.527343 1.6699219v7.9453125h9.914063c1.47657 0 2.214844.6445248 2.214844 1.9335938zm16.839843 24.6445312c0 1.6640709.550776 2.4960938 1.652344 2.4960938.375002 0 .796873-.1054677 1.265625-.3164062.914067-.3984395 1.535155-.5976563 1.863281-.5976563.49219 0 .890624.3398404 1.195313 1.0195313l1.089844 2.4609374c.1875.3984395.28125.7734358.28125 1.125 0 1.0078176-.867179 1.9453082-2.601563 2.8125-1.640633.8437543-3.263664 1.265625-4.869141 1.265625-1.605476 0-2.888667-.1757794-3.849609-.5273437s-1.781247-.9374959-2.460937-1.7578125c-1.359382-1.6875084-2.039063-4.4296685-2.039063-8.2265625v-27.421875c0-.6562533.187498-1.207029.5625-1.6523437.375002-.4453148.82031-.6679688 1.335937-.6679688h4.710938c.539065 0 .984373.222654 1.335938.6679688.351564.4453147.527343.9960904.527343 1.6523437z" fill="#6274d8"/><circle cx="42" cy="12" r="6" stroke="#6274d8" stroke-width="2"/><path d="m4.72618721 8.94599804-3.5446403-3.54464106-1.18154691 1.18154649 4.72618721 4.72618763 10.12754419-10.12754419-1.1815466-1.18154691z" fill="#6274d8" transform="translate(38 4)"/><circle cx="115" cy="12" r="6" stroke="#6274d8" stroke-width="2"/><path d="m4.72618721 8.94599804-3.5446403-3.54464106-1.18154691 1.18154649 4.72618721 4.72618763 10.12754419-10.12754419-1.1815466-1.18154691z" fill="#6274d8" transform="translate(111 4)"/><circle cx="169" cy="12" r="6" stroke="#6274d8" stroke-width="2"/><path d="m4.72618721 8.94599804-3.5446403-3.54464106-1.18154691 1.18154649 4.72618721 4.72618763 10.12754419-10.12754419-1.1815466-1.18154691z" fill="#6274d8" transform="translate(165 4)"/></g></svg>