<svg viewBox="0 0 170 170" xmlns="http://www.w3.org/2000/svg"><path d="m158.846 164.066h-147.692c-2.75 0-5-2.25-5-5v-147.692c0-2.75 2.25-5 5-5h147.692c2.75 0 5 2.25 5 5v147.692c0 2.75-2.25 5-5 5z" fill="#fff" stroke="#e0e0e0" stroke-miterlimit="10"/><path d="m163.846 24.494v-13.56c0-2.75-2.25-5-5-5h-147.692c-2.75 0-5 2.25-5 5v13.56z" fill="#fff" stroke="#e0e0e0" stroke-miterlimit="10"/><circle cx="17.023" cy="15.809" fill="#ed2c24" r="2.875"/><circle cx="26.711" cy="15.809" fill="#eaa822" r="2.875"/><circle cx="36.398" cy="15.809" fill="#80c142" r="2.875"/><circle cx="26.711" cy="52.822" fill="#efeded" r="7.134"/><circle cx="26.711" cy="75.798" fill="#efeded" r="7.134"/><circle cx="26.711" cy="98.775" fill="#bcbcbc" r="7.134"/><circle cx="26.711" cy="121.751" fill="#efeded" r="7.134"/><path d="m39.273 48.609h99.671v3.319h-99.671zm0 5.106h80.718v3.319h-80.718zm0 17.871h99.671v3.319h-99.671zm0 5.106h63.024v3.319h-63.024zm0 17.87h99.671v3.319h-99.671zm0 5.106h78.988v3.319h-78.988zm0 17.871h99.671v3.319h-99.671zm0 5.106h47.166v3.319h-47.166z" fill="#edebeb"/></svg>